<svg width="17" height="16" viewBox="0 0 17 16" fill="none" xmlns="http://www.w3.org/2000/svg">
<path d="M5.0982 1C5.41033 1 5.6979 1.16927 5.84942 1.44216L6.90036 3.33527C7.03796 3.58314 7.04444 3.88295 6.91763 4.13654L5.90518 6.16149C5.90518 6.16149 6.19858 7.66994 7.42652 8.89788C8.65445 10.1258 10.1579 10.4141 10.1579 10.4141L12.1825 9.40187C12.4362 9.27497 12.7363 9.28154 12.9842 9.4194L14.8827 10.4749C15.1553 10.6265 15.3244 10.9139 15.3244 11.2258V13.4053C15.3244 14.5153 14.2934 15.3169 13.2418 14.962C11.0818 14.2332 7.72904 12.8456 5.60395 10.7204C3.47882 8.59536 2.09117 5.24255 1.36236 3.08263C1.00751 2.03096 1.80916 1 2.91907 1H5.0982Z" stroke="white" stroke-width="1.5" stroke-linejoin="round"/>
</svg>
